<svg xmlns="http://www.w3.org/2000/svg" viewBox="0 0 64 64" role="img" aria-label="DCA">
  <defs>
    <radialGradient id="bg" cx="50%" cy="38%" r="70%">
      <stop offset="0%" stop-color="#242133"/>
      <stop offset="100%" stop-color="#080912"/>
    </radialGradient>
    <linearGradient id="heart" x1="15" y1="13" x2="52" y2="54" gradientUnits="userSpaceOnUse">
      <stop offset="0%" stop-color="#f5d5a4"/>
      <stop offset="48%" stop-color="#e09aaa"/>
      <stop offset="100%" stop-color="#c0767f"/>
    </linearGradient>
    <filter id="glow" x="-40%" y="-40%" width="180%" height="180%">
      <feGaussianBlur stdDeviation="2.6" result="blur"/>
      <feMerge>
        <feMergeNode in="blur"/>
        <feMergeNode in="SourceGraphic"/>
      </feMerge>
    </filter>
  </defs>
  <rect width="64" height="64" rx="16" fill="url(#bg)"/>
  <path
    d="M32 52S12 40.3 12 25.4C12 16.9 21.8 12.7 28 19.2L32 23.4 36 19.2C42.2 12.7 52 16.9 52 25.4 52 40.3 32 52 32 52Z"
    fill="url(#heart)"
    filter="url(#glow)"
  />
  <path
    d="M32 46.5S17 37.4 17 26.4c0-5.4 6.3-8.1 10.4-3.7L32 27.6l4.6-4.9C40.7 18.3 47 21 47 26.4c0 11-15 20.1-15 20.1Z"
    fill="none"
    stroke="#ffffff"
    opacity="0.46"
    stroke-width="2"
  />
  <circle cx="19" cy="15" r="1.6" fill="#f5d5a4" opacity="0.85"/>
  <circle cx="48" cy="17" r="1.3" fill="#9ecfeb" opacity="0.8"/>
  <circle cx="45" cy="49" r="1.4" fill="#f5d5a4" opacity="0.7"/>
</svg>
